<svg width="20" height="20" viewBox="0 0 20 20" fill="none" xmlns="http://www.w3.org/2000/svg">
<g clip-path="url(#clip0_2_116)">
<path d="M13.3056 11.4321H6.91664C5.87827 11.4334 4.88278 11.8464 4.14854 12.5806C3.4143 13.3149 3.00125 14.3104 3 15.3487V19.3333H17.2222V15.3487C17.221 14.3104 16.8079 13.3149 16.0737 12.5806C15.3394 11.8464 14.344 11.4334 13.3056 11.4321Z" fill="black"/>
<path d="M10.1111 9.85185C12.7294 9.85185 14.8519 7.72935 14.8519 5.11111C14.8519 2.49287 12.7294 0.37037 10.1111 0.37037C7.49289 0.37037 5.37039 2.49287 5.37039 5.11111C5.37039 7.72935 7.49289 9.85185 10.1111 9.85185Z" fill="black"/>
</g>
<defs>
<clipPath id="clip0_2_116">
<rect width="18.963" height="18.963" fill="white" transform="translate(0.629639 0.37037)"/>
</clipPath>
</defs>
</svg>
